<svg xmlns="http://www.w3.org/2000/svg" viewBox="0 0 18 20" style="width:auto;height:20px;display:inline;fill:var(color-text-medium);flex-shrink:0;line-height:0;margin-bottom:-5px;margin-right:8px" class="frontArticle"><path d="m9 4.4375c-.64844-.79688-2.23438-1.51562-4.00781-1.51562-2.33594 0-4.21094 1.19531-4.671878 2.32812v11.7344c0 .6406.414063.8906.874998.8906.36719 0 .57031-.1094.79688-.2812.54687-.4532 1.45312-.9766 3-.9766 1.5625 0 2.60937.5156 3.0625.9219.21875.1797.48437.3359.94531.3359s.71094-.1797.9375-.3359c.4922-.375 1.5078-.9219 3.0625-.9219s2.4766.5312 3 .9766c.2344.1718.4375.2812.7969.2812.4609 0 .875-.25.875-.8906v-11.7344c-.461-1.13281-2.336-2.32812-4.6719-2.32812-1.7656 0-3.35156.71874-4 1.51562zm-7.32812 1.21094c.1875-.52344 1.41406-1.46094 3.32031-1.46094 1.92187 0 3.16406.94531 3.32812 1.46094v10.65626c-.8125-.6016-2.02343-.9453-3.32812-.9453s-2.51563.3437-3.32031.9765zm14.64842 0v10.68746c-.8047-.6328-2.0156-.9765-3.3203-.9765s-2.5078.3437-3.32812.9453v-10.65626c.16406-.51563 1.41402-1.46094 3.32812-1.46094s3.1328.9375 3.3203 1.46094z"/></svg>